<svg aria-hidden="true" style="width:0;height:0;position:absolute;overflow:hidden" xmlns="http://www.w3.org/2000/svg"><defs><symbol id="icon-close" viewBox="0 0 32 32"><path fill="none" stroke-width="2.133" d="m8.533 8.533 14.933 14.933m-14.933.001L23.466 8.534"/></symbol><symbol id="icon-X" viewBox="0 0 32 32"><path id="Shape" d="m9.291 10.352-4-4-4.005 4A.75.75 0 1 1 .22 9.291l4.005-4L.22 1.281A.75.75 0 0 1 1.281.22l4.005 4.005 4-4.005a.75.75 0 1 1 1.061 1.061l-4 4.005 4 4a.75.75 0 0 1-1.061 1.061Z" transform="translate(6.629 6.8)" fill="#141124"/></symbol><symbol id="icon-film" viewBox="0 0 32 32"><path fill="none" stroke="#fff" style="stroke:var(--color1,#fff)" stroke-linejoin="round" stroke-linecap="round" stroke-width="2.667" d="M26.427 2.667H5.574a2.907 2.907 0 0 0-2.907 2.907v20.853a2.907 2.907 0 0 0 2.907 2.907h20.853a2.907 2.907 0 0 0 2.907-2.907V5.574a2.907 2.907 0 0 0-2.907-2.907zm-17.094 0v26.667M22.667 2.667v26.667M2.667 16h26.667M2.667 9.333h6.667M2.667 22.667h6.667m13.333 0h6.667M22.667 9.333h6.667"/></symbol><symbol id="icon-group" viewBox="0 0 34 32"><path fill="#ff6b08" style="fill:var(--color2,#ff6b08)" d="m17.231 31.705-2.412-2.412C5.859 21.367.001 16.025.001 9.478.001 4.136 4.136.001 9.478.001c2.929 0 5.858 1.378 7.754 3.618 1.895-2.24 4.825-3.618 7.754-3.618 5.342 0 9.477 4.135 9.477 9.477 0 6.548-5.858 11.889-14.818 19.815l-2.412 2.412z"/></symbol><symbol id="icon-search" viewBox="0 0 32 32"><path fill="none" style="stroke:var(--color1)" stroke-linejoin="round" stroke-linecap="round" stroke-width="2.667" d="M14.667 25.333c5.891 0 10.667-4.776 10.667-10.667S20.558 3.999 14.667 3.999 4 8.775 4 14.666s4.776 10.667 10.667 10.667zM28 28.001l-5.8-5.8"/></symbol><symbol id="icon-arrow-first" viewBox="0 0 32 32"><path stroke-linejoin="round" stroke-linecap="round" stroke-width="2.667" d="M25.333 16H6.666M16 25.333 6.667 16 16 6.667"/></symbol><symbol id="icon-arrow-last" viewBox="0 0 32 32"><path stroke-linejoin="round" stroke-linecap="round" stroke-width="2.667" d="M6.667 16h18.667M16 25.333 25.333 16 16 6.667"/></symbol><symbol id="icon-dots" viewBox="0 0 10 3"><path d="M1.617.5c.266 0 .47.076.615.229a.773.773 0 0 1 .217.562.766.766 0 0 1-.217.557c-.144.144-.35.216-.615.216-.254 0-.455-.072-.603-.216A.743.743 0 0 1 .79 1.29c0-.227.072-.414.217-.562.144-.153.347-.229.61-.229ZM4.97.5c.265 0 .47.076.615.229a.773.773 0 0 1 .217.562.766.766 0 0 1-.217.557c-.145.144-.35.216-.615.216-.254 0-.455-.072-.604-.216a.743.743 0 0 1-.222-.557c0-.227.072-.414.216-.562C4.504.576 4.707.5 4.97.5ZM8.32.5c.266 0 .471.076.616.229a.773.773 0 0 1 .216.562.766.766 0 0 1-.216.557c-.145.144-.35.216-.616.216-.254 0-.455-.072-.603-.216a.743.743 0 0 1-.223-.557c0-.227.072-.414.217-.562C7.855.576 8.059.5 8.32.5Z"/></symbol><symbol id="icon-sun" viewBox="0 0 32 32"><path d="M16 26a2 2 0 0 1 2 2v2a2 2 0 1 1-4 0v-2a2 2 0 0 1 2-2zm0-20a2 2 0 0 1-2-2V2a2 2 0 1 1 4 0v2a2 2 0 0 1-2 2zm14 8a2 2 0 1 1 0 4h-2a2 2 0 1 1 0-4h2zM6 16a2 2 0 0 1-2 2H2a2 2 0 1 1 0-4h2a2 2 0 0 1 2 2zm19.899 7.071 1.414 1.414a2 2 0 1 1-2.828 2.828l-1.414-1.414a2 2 0 1 1 2.828-2.828zM6.101 8.929 4.687 7.515a2 2 0 1 1 2.828-2.828l1.414 1.414a2 2 0 1 1-2.828 2.828zm19.798 0a2 2 0 1 1-2.828-2.828l1.414-1.414a2 2 0 1 1 2.828 2.828l-1.414 1.414zM6.101 23.071a2 2 0 1 1 2.828 2.828l-1.414 1.414a2 2 0 1 1-2.828-2.828l1.414-1.414zM16 8a8 8 0 1 0 0 16 8 8 0 0 0 0-16zm0 13a5 5 0 1 1 .001-10.001A5 5 0 0 1 16 21z"/></symbol><symbol id="icon-night" viewBox="0 0 32 32"><path d="M29.687 23.476c-.992.262-2.132.413-3.306.413-6.07 0-11.42-4.096-13.01-9.961-1.238-4.571-.034-9.358 3.223-12.805L17.655 0l-1.544.066a16.079 16.079 0 0 0-3.616.567l.113-.027C4.108 2.912-.933 11.702 1.371 20.203c1.883 6.946 8.218 11.796 15.407 11.796a16.04 16.04 0 0 0 4.188-.56 15.92 15.92 0 0 0 9.408-7.026l.813-1.316-1.5.379zm-9.05 6.755a14.787 14.787 0 0 1-3.86.516c-6.624 0-12.462-4.47-14.197-10.871C.457 12.042 5.101 3.942 12.935 1.819a13.369 13.369 0 0 1 1.646-.347l.08-.01c-2.781 3.635-3.718 8.311-2.502 12.796 1.737 6.41 7.586 10.886 14.22 10.886.692 0 1.384-.05 2.072-.147a14.67 14.67 0 0 1-7.815 5.235zM17.435 8.098l3.074-.873.94-3.052.874 3.072 3.054.941-3.074.874-.94 3.053-.873-3.072-3.053-.942zm6.684 5.261 2.137-.699.575-2.172.699 2.135 2.173.578-2.136.698-.577 2.172-.698-2.135-2.173-.577z"/></symbol></defs></svg>