<svg aria-hidden="true" style="position:absolute;width:0;height:0;overflow:hidden" xmlns="http://www.w3.org/2000/svg">
    <defs>
        <symbol id="icon-X" viewBox="0 0 32 32">
            <path id="Shape" d="M9.291,10.352l-4-4-4.005,4A.75.75,0,1,1,.22,9.291l4.005-4L.22,1.281A.75.75,0,0,1,1.281.22L5.286,4.225l4-4.005a.75.75,0,1,1,1.061,1.061l-4,4.005,4,4a.75.75,0,0,1-1.061,1.061Z" transform="translate(6.629 6.8)" fill="#141124"/>
        </symbol>
        <symbol id="icon-film" viewBox="0 0 32 32">
            <path fill="none" stroke="#fff" style="stroke:var(--color1, #fff)" stroke-linejoin="round" stroke-linecap="round" stroke-width="2.667" d="M26.427 2.667H5.574a2.907 2.907 0 0 0-2.907 2.907v20.853a2.907 2.907 0 0 0 2.907 2.907h20.853a2.907 2.907 0 0 0 2.907-2.907V5.574a2.907 2.907 0 0 0-2.907-2.907zM9.333 2.667v26.667M22.667 2.667v26.667M2.667 16h26.667M2.667 9.333h6.667M2.667 22.667h6.667M22.667 22.667h6.667M22.667 9.333h6.667"/>
        </symbol>
        <symbol id="icon-group" viewBox="0 0 34 32">
            <path fill="#ff6b08" style="fill:var(--color2, #ff6b08)" d="m17.231 31.705-2.412-2.412C5.859 21.367.001 16.025.001 9.478.001 4.136 4.136.001 9.478.001c2.929 0 5.858 1.378 7.754 3.618 1.895-2.24 4.825-3.618 7.754-3.618 5.342 0 9.477 4.135 9.477 9.477 0 6.548-5.858 11.889-14.818 19.815l-2.412 2.412z"/>
        </symbol>
        <symbol id="icon-search" viewBox="0 0 32 32">
            <path fill="none" stroke="none" style="stroke:var(--color1)" stroke-linejoin="round" stroke-linecap="round" stroke-width="2.667" d="M14.667 25.333c5.891 0 10.667-4.776 10.667-10.667S20.558 3.999 14.667 3.999 4 8.775 4 14.666s4.776 10.667 10.667 10.667zM28 28.001l-5.8-5.8"/>
        </symbol>
        <symbol id="icon-arrow-first" viewBox="0 0 32 32">
            <path stroke-linejoin="round" stroke-linecap="round" stroke-width="2.667" d="M25.333 16H6.666M16 25.333 6.667 16 16 6.667"/>
        </symbol>
        <symbol id="icon-arrow-last" viewBox="0 0 32 32">
            <path stroke-linejoin="round" stroke-linecap="round" stroke-width="2.667" d="M6.667 16h18.667M16 25.333 25.333 16 16 6.667"/>
        </symbol>
        <symbol id="icon-dots" viewBox="0 0 10 3" >
            <path d="M1.61719 0.5C1.88281 0.5 2.08789 0.576172 2.23242 0.728516C2.37695 0.876953 2.44922 1.06445 2.44922 1.29102C2.44922 1.51367 2.37695 1.69922 2.23242 1.84766C2.08789 1.99219 1.88281 2.06445 1.61719 2.06445C1.36328 2.06445 1.16211 1.99219 1.01367 1.84766C0.865234 1.70312 0.791016 1.51758 0.791016 1.29102C0.791016 1.06445 0.863281 0.876953 1.00781 0.728516C1.15234 0.576172 1.35547 0.5 1.61719 0.5ZM4.96875 0.5C5.23438 0.5 5.43945 0.576172 5.58398 0.728516C5.72852 0.876953 5.80078 1.06445 5.80078 1.29102C5.80078 1.51367 5.72852 1.69922 5.58398 1.84766C5.43945 1.99219 5.23438 2.06445 4.96875 2.06445C4.71484 2.06445 4.51367 1.99219 4.36523 1.84766C4.2168 1.70312 4.14258 1.51758 4.14258 1.29102C4.14258 1.06445 4.21484 0.876953 4.35938 0.728516C4.50391 0.576172 4.70703 0.5 4.96875 0.5ZM8.32031 0.5C8.58594 0.5 8.79102 0.576172 8.93555 0.728516C9.08008 0.876953 9.15234 1.06445 9.15234 1.29102C9.15234 1.51367 9.08008 1.69922 8.93555 1.84766C8.79102 1.99219 8.58594 2.06445 8.32031 2.06445C8.06641 2.06445 7.86523 1.99219 7.7168 1.84766C7.56836 1.70312 7.49414 1.51758 7.49414 1.29102C7.49414 1.06445 7.56641 0.876953 7.71094 0.728516C7.85547 0.576172 8.05859 0.5 8.32031 0.5Z"/>
        </symbol>
    </defs>
</svg>